<?xml version="1.0" encoding="UTF-8" standalone="no" ?>
<!DOCTYPE svg PUBLIC "-//W3C//DTD SVG 1.1//EN" "http://www.w3.org/Graphics/SVG/1.1/DTD/svg11.dtd">
<svg xmlns="http://www.w3.org/2000/svg" xmlns:xlink="http://www.w3.org/1999/xlink" version="1.1" width="640" height="480" viewBox="0 0 640 480" xml:space="preserve">
<desc>Created with Fabric.js 3.6.6</desc>
<defs>
</defs>
<g transform="matrix(4.67 0 0 4.67 303.76 193.73)"  >
<linearGradient id="SVGID_16" gradientUnits="userSpaceOnUse" gradientTransform="matrix(1 0 0 -1 81.42 161.06)"  x1="468.012" y1="65.378" x2="487.678" y2="55.896">
<stop offset="0%" style="stop-color:rgb(205,9,13);stop-opacity: 1"/>
<stop offset="100%" style="stop-color:rgb(243,146,114);stop-opacity: 1"/>
</linearGradient>
<path style="stroke: none; stroke-width: 1; stroke-dasharray: none; stroke-linecap: butt; stroke-dashoffset: 0; stroke-linejoin: miter; stroke-miterlimit: 4; fill: url(#SVGID_16); fill-rule: nonzero; opacity: 1;"  transform=" translate(-544.1, -93.2)" d="M 508.3 66.3 c -1.9 0 -3.5 1.5 -3.5 3.5 v 46.8 c 0 1.9 1.5 3.5 3.5 3.5 h 71.6 c 1.9 0 3.5 -1.5 3.5 -3.5 V 91.7 c -4 0 -7.2 -3.2 -7.2 -7.2 s 3.2 -7.2 7.2 -7.2 v -7.5 c 0 -1.9 -1.5 -3.5 -3.5 -3.5 h -71.6 z" stroke-linecap="round" />
</g>
<g transform="matrix(4.67 0 0 4.67 303.99 83.98)"  >
<linearGradient id="SVGID_17" gradientUnits="userSpaceOnUse" gradientTransform="matrix(1 0 0 -1 3.19 212.76)"  x1="540.972" y1="144.663" x2="540.972" y2="141.689">
<stop offset="0%" style="stop-color:rgb(255,255,255);stop-opacity: 1"/>
<stop offset="30%" style="stop-color:rgb(255,255,255);stop-opacity: 0.498"/>
<stop offset="100%" style="stop-color:rgb(255,255,255);stop-opacity: 0"/>
</linearGradient>
<path style="stroke: none; stroke-width: 1; stroke-dasharray: none; stroke-linecap: butt; stroke-dashoffset: 0; stroke-linejoin: miter; stroke-miterlimit: 4; fill: url(#SVGID_17); fill-rule: nonzero; opacity: 1;"  transform=" translate(-544.15, -69.7)" d="M 506.9 68.9 c 0.8 0.4 1.5 1.2 2.1 2.5 h 70.6 c 0.2 -1.1 0.8 -1.9 1.8 -2.6 c -0.4 -0.5 -0.9 -0.8 -1.4 -0.8 h -71.8 c -0.5 0.1 -1 0.4 -1.3 0.9 z" stroke-linecap="round" />
</g>
<g transform="matrix(4.67 0 0 4.67 278.82 194.36)"  >
<path style="stroke: rgb(228,12,12); stroke-width: 1; stroke-dasharray: none; stroke-linecap: butt; stroke-dashoffset: 0; stroke-linejoin: miter; stroke-miterlimit: 4; fill: rgb(255,255,255); fill-rule: nonzero; opacity: 1;" vector-effect="non-scaling-stroke"  transform=" translate(-539.15, -93.73)" d="M 511 114.8 s -0.5 -0.1 -0.4 -0.2 c 0.1 -0.5 0.3 -0.8 0.3 -1 c 0 -0.2 0.4 0 0.4 0 l 0.3 -0.6 s -0.4 -0.1 -0.3 -0.3 c 0.1 -0.4 0.3 -0.6 0.4 -0.7 c 0.1 -0.1 0.3 0.1 0.3 0.1 s 0.2 -0.2 0.2 -0.3 c 0.3 -0.4 0.7 -0.6 0.8 -0.9 l 0.2 -0.6 s -0.4 -0.2 -0.3 -0.3 c 0.2 -0.3 0.3 -0.4 0.4 -0.7 c 0.1 -0.1 0.3 0.2 0.3 0.2 l 0.3 -0.4 s -0.3 -0.2 -0.2 -0.3 c 0.1 -0.3 0.4 -0.5 0.5 -0.8 c 0.1 -0.1 0.3 0.2 0.3 0.2 s 0.6 -0.7 0.9 -0.8 c 0.2 0 0.6 0.3 0.6 0.3 l 0.7 0.7 l 0.7 0.7 h 0.4 c 0.8 0 2.8 -0.6 5.1 -1.5 c 1.3 -0.5 2.7 -1 3.1 -1.1 c 0 0 0.5 -0.2 0.8 -0.2 c 0.1 0 0.4 0.1 0.4 0.1 l 0.4 0.1 l -0.4 -0.6 c -0.2 -0.4 -0.7 -1.2 -1 -1.9 c -0.4 -0.7 -0.6 -1.4 -0.9 -2 l -0.4 0.1 l -0.7 -1.7 c -2 -4.1 -2.2 -5.2 -2.1 -7.7 c 0.1 -0.6 0.3 -1 0.6 -1.4 l -0.4 -0.1 s -0.4 0.1 -0.4 -0.1 c 0 -0.9 0.2 -2.6 0.2 -2.6 c 0.3 -3 0.7 -6 1.4 -8.1 l 0.3 -0.9 l 1 -0.5 l 1 -0.5 l -0.5 0.1 c -0.3 0 -1.5 0.2 -2.6 0.2 l -2.1 0.2 l -2 2.2 l -2.2 2 l -0.2 0.7 s -0.1 0.5 -0.2 0.7 c -0.1 0.2 -0.5 0.6 -0.5 0.6 c -0.3 0.3 -0.8 0.7 -1.1 0.9 l -0.6 0.3 h -0.4 c -0.6 0 -0.9 -0.1 -0.9 -0.4 c 0 -0.1 0.3 -0.5 0.6 -0.8 c 0.3 -0.4 0.6 -0.7 0.5 -0.7 c 0 0 -0.3 0.1 -0.6 0.3 c 0 0 -0.4 0.4 -0.6 0.4 c -0.2 0 -0.3 -0.3 -0.3 -0.6 c 0 -0.2 0.4 -0.3 0.6 -0.4 c 0.5 -0.4 0.7 -0.7 1.1 -1.3 c 0.2 -0.3 0.5 -0.7 0.8 -0.8 l 0.5 -0.3 l 1.3 -2.1 c 0.7 -1.1 1.5 -2.5 1.9 -3 c 0 0 0.3 -0.7 0.6 -1 c 0.2 -0.1 0.6 -0.2 0.6 -0.2 l 0.8 -0.2 c 0 -0.3 -0.2 -0.6 0.1 -0.6 c 2.2 -0.5 2.9 -0.8 4.8 -1.2 c 1.6 -0.3 3.1 -0.2 3.1 -0.2 l 0.7 0.1 c 1 0.2 2.5 0.6 3.2 0.8 l 0.6 0.2 l 0.3 -0.6 c 0.4 -0.8 1.2 -1.6 2 -2 c 1 -0.4 1.9 -0.6 2.9 -0.3 l 0.6 0.2 c 1.1 0.7 1.7 1.7 2.2 2.8 c 0.1 1.2 0.3 2.1 -0.4 2.7 c -0.2 0.1 -0.4 0.1 -0.8 0.3 c -0.5 0.2 -0.8 0.8 -1.3 1.5 c 0 0 -0.2 0.3 -0.4 0.4 c -0.2 0.1 -0.3 0.1 -0.5 0 c -0.4 0 -0.6 0.1 -0.6 0.1 l -0.5 0.3 c -0.3 0.2 -0.7 0.3 -0.9 0.3 h -0.3 c -0.2 -0.1 -0.4 -0.5 -0.4 -0.5 l -0.3 -0.5 l -0.1 0.3 c -0.9 2.5 -1.1 5.4 -2 7.9 l 1.2 0.1 c 0.6 0.1 2.2 0.3 3.5 0.5 c 0 0 1.7 0.2 2.4 0.4 c 0.2 0 0.3 0.5 0.3 0.5 l 1.5 0.3 c 0.8 0.2 2.1 0.5 2.9 0.8 l 1.4 0.5 s 1 -0.2 1.5 -0.2 c 0.6 0 1.7 0.4 1.7 0.4 l 0.1 -0.2 l 1.4 0.6 c 0.7 0.3 2.2 1 3.6 1.6 c 2.8 1.2 4.8 1.9 5.9 2.2 l 0.8 0.2 l 2.2 -0.2 c 1.2 -0.1 2.5 -0.3 2.9 -0.4 c 1 -0.2 1.3 -0.2 1.7 0.2 c 0.2 0.2 0.5 0.5 0.4 0.6 c -0.1 0.1 -0.3 0.3 -0.5 0.3 c 0 0 0.2 0.2 0.1 0.3 c -0.2 0.2 -0.4 0.2 -0.6 0.3 c -0.1 0 -0.2 -0.2 -0.2 -0.2 l -0.4 0.3 c 0.1 0.1 0.2 0.2 0.1 0.3 c -0.2 0.2 -0.4 0.3 -0.6 0.4 c -0.1 0.1 -0.1 -0.1 -0.2 -0.2 l -2.5 1.9 s 0.3 0.2 0.2 0.4 c -0.3 0.3 -0.3 0.3 -0.5 0.4 c -0.1 0 -0.2 -0.2 -0.3 -0.3 l -0.4 0.3 s 0.3 0.3 0.2 0.4 c -0.1 0.1 -0.3 0.2 -0.6 0.4 c -0.1 0.1 -0.4 -0.3 -0.4 -0.3 s -0.8 0.5 -1.1 0.4 c -0.2 -0.1 -0.2 -0.6 -0.5 -1.1 c 0 0 -0.2 -0.6 -0.5 -0.8 c -0.2 -0.2 -0.6 -0.2 -0.6 -0.2 c -1.3 -0.2 -3.5 -0.7 -4.8 -0.8 c -4.4 -0.3 -5.3 -0.5 -6.9 -1.3 l -1.1 -0.6 l -3.3 -0.1 l -3.4 -0.1 l -0.2 0.4 h -6.8 v 0.3 c 0 0.2 0.2 1 0.4 2.1 c 0 0 0.4 1.8 0.2 2 c -0.2 0.2 -0.5 0.4 -0.5 0.4 l 0.4 2.3 c 0.5 3.3 0.6 3.4 0.6 4.6 v 1.1 l -0.2 0.4 c -0.1 0.2 -0.3 0.7 -0.6 0.9 l -0.4 0.5 l -0.9 0.4 c -0.5 0.2 -0.8 0.4 -1 0.4 c -0.1 0 -0.5 0.1 -0.6 0.2 c -0.1 0 0 0.2 -0.1 0.2 c -0.2 0 -1.8 0.1 -1.8 0.1 c -1 0.1 -3.7 0.2 -6.2 0.4 l -4.4 0.2 l -0.6 0.4 c -1.3 0.8 -2.4 1.8 -3 2.6 l -0.7 0.7 c -0.2 0.1 -0.5 0.2 -0.8 0.2 c -0.5 0 -0.8 -0.2 -0.8 -0.5 c -0.1 -0.3 0.1 -0.8 0.1 -0.8 z" stroke-linecap="round" />
</g>
<g transform="matrix(4.67 0 0 4.67 304.23 310.24)"  >
<linearGradient id="SVGID_18" gradientUnits="userSpaceOnUse" gradientTransform="matrix(1 0 0 -1 81.42 161.08)"  x1="462.714" y1="40.159" x2="462.714" y2="44.876">
<stop offset="0%" style="stop-color:rgb(88,0,0);stop-opacity: 0.863"/>
<stop offset="54.7%" style="stop-color:rgb(116,5,0);stop-opacity: 0.514"/>
<stop offset="81.5%" style="stop-color:rgb(128,7,0);stop-opacity: 0.255"/>
<stop offset="100%" style="stop-color:rgb(140,10,0);stop-opacity: 0"/>
</linearGradient>
<path style="stroke: none; stroke-width: 1; stroke-dasharray: none; stroke-linecap: butt; stroke-dashoffset: 0; stroke-linejoin: miter; stroke-miterlimit: 4; fill: url(#SVGID_18); fill-rule: nonzero; opacity: 1;"  transform=" translate(-544.2, -118.15)" d="M 504.9 116.3 v 0.2 c 0 1.9 1.5 3.5 3.5 3.5 H 580 c 1.9 0 3.5 -1.5 3.5 -3.5 v -0.2 h -78.6 z" stroke-linecap="round" />
</g>
<g transform="matrix(4.67 0 0 4.67 487.33 152.4)"  >
<radialGradient id="SVGID_19" gradientUnits="userSpaceOnUse" gradientTransform="matrix(-1.36 1.31 1.25 1.3 2526.11 -734.56)"  cx="1042.081" cy="-421.16" r="4.132" fx="1042.081" fy="-421.16">
<stop offset="0%" style="stop-color:rgb(255,255,255);stop-opacity: 1"/>
<stop offset="50%" style="stop-color:rgb(70,70,70);stop-opacity: 1"/>
<stop offset="100%" style="stop-color:rgb(0,0,0);stop-opacity: 1"/>
</radialGradient>
<path style="stroke: none; stroke-width: 1; stroke-dasharray: none; stroke-linecap: butt; stroke-dashoffset: 0; stroke-linejoin: miter; stroke-miterlimit: 4; fill: url(#SVGID_19); fill-rule: nonzero; opacity: 1;"  transform=" translate(-583.41, -84.35)" d="M 583.4 80.4 c -1.9 0 -3.4 1.1 -3.4 2.5 s 1.5 2.5 3.4 2.5 s 3.4 -1.1 3.4 -2.5 c -0.1 -1.4 -1.6 -2.5 -3.4 -2.5 z m 3.6 1.9 c 0.2 0.4 0.4 0.9 0.4 1.5 c 0 1.9 -1.8 3.4 -4 3.4 s -3.9 -1.5 -3.9 -3.4 c 0 -0.3 0.1 -0.6 0.1 -0.9 c -0.2 0.5 -0.3 0.9 -0.3 1.5 c 0 2.1 1.8 3.9 4.1 3.9 s 4.1 -1.7 4.1 -3.9 c 0.1 -0.9 -0.2 -1.5 -0.5 -2.1 z" stroke-linecap="round" />
</g>
<g transform="matrix(4.67 0 0 4.67 487.29 153.11)"  >
<radialGradient id="SVGID_20" gradientUnits="userSpaceOnUse" gradientTransform="matrix(1 0 0 -1 103.18 -58.66)"  cx="480.41" cy="-141.442" r="4.264" fx="480.41" fy="-141.442">
<stop offset="0%" style="stop-color:rgb(239,239,239);stop-opacity: 1"/>
<stop offset="55.00000000000001%" style="stop-color:rgb(175,175,175);stop-opacity: 1"/>
<stop offset="100%" style="stop-color:rgb(63,63,63);stop-opacity: 1"/>
</radialGradient>
<path style="stroke: none; stroke-width: 1; stroke-dasharray: none; stroke-linecap: butt; stroke-dashoffset: 0; stroke-linejoin: miter; stroke-miterlimit: 4; fill: url(#SVGID_20); fill-rule: nonzero; opacity: 1;"  transform=" translate(-583.4, -84.5)" d="M 583.4 80.2 c -2.4 0 -4.3 1.9 -4.3 4.3 s 1.9 4.3 4.3 4.3 s 4.3 -1.9 4.3 -4.3 s -2 -4.3 -4.3 -4.3 z m -1.4 0.4 s 0.8 -0.2 1.4 -0.2 c 0.6 0 2.1 0.3 2.8 1.2 c 1.3 1.8 -0.2 2.9 -0.4 3.1 c 0 -0.2 -0.3 -1.3 -0.6 -1.8 c -0.2 -0.3 -0.4 -0.6 -0.6 -0.8 c -0.3 -0.3 -0.5 -0.5 -0.9 -0.8 c -1.1 -0.3 -0.2 0 0.2 0.3 c 0 0 1.6 1.4 1.7 3.1 c -0.6 0.4 -1.4 0.7 -2.2 0.7 c -1.9 0 -3.3 -1.1 -3.3 -2.5 c 0.3 -1.7 1.3 -1.9 1.4 -2.1 c 0.1 0 0.3 -0.1 0.5 -0.2 z m 1.4 7.5 c -3.8 -0.2 -4.5 -3.4 -3.8 -5.3 c -0.8 1.9 0.9 4.2 3.8 4.3 c 1.7 0 2.2 -0.6 2.2 -0.6 s 0 0.4 -0.1 0.6 c 0 0.2 -0.1 0.5 -0.1 0.5 c -0.6 0.4 -0.8 0.4 -2 0.5 z" stroke-linecap="round" />
</g>
<g transform="matrix(4.67 0 0 4.67 493.59 145.44)"  >
<linearGradient id="SVGID_21" gradientUnits="userSpaceOnUse" gradientTransform="matrix(1 0 0 -1 102.9 -58.84)"  x1="481.724" y1="-139.988" x2="481.518" y2="-142.216">
<stop offset="0%" style="stop-color:rgb(255,255,255);stop-opacity: 0.766"/>
<stop offset="100%" style="stop-color:rgb(170,170,170);stop-opacity: 0.475"/>
</linearGradient>
<path style="stroke: none; stroke-width: 1; stroke-dasharray: none; stroke-linecap: butt; stroke-dashoffset: 0; stroke-linejoin: miter; stroke-miterlimit: 4; fill: url(#SVGID_21); fill-rule: nonzero; opacity: 1;"  transform=" translate(-584.75, -82.86)" d="M 585.8 85 c -0.1 -0.4 -0.1 -0.6 -0.2 -0.9 l -0.1 -0.5 c -0.5 -1.4 -1.2 -1.9 -2.1 -2.5 c -0.3 -0.2 -0.9 -0.5 -1.2 -0.6 c 0.4 -0.1 0.5 -0.1 0.7 -0.2 c 0.9 0 1.7 0 2.7 0.5 c 1.1 0.6 1.7 1.4 1.7 2.3 c 0 0.3 0 0.5 -0.1 0.7 c -0.1 0.5 -0.3 0.9 -0.7 1.4 c -0.1 0.2 -0.3 0.2 -0.4 0.2 c -0.3 0.1 -0.3 -0.2 -0.3 -0.4 z" stroke-linecap="round" />
</g>
<g transform="matrix(4.67 0 0 4.67 484.49 143.77)"  >
<radialGradient id="SVGID_22" gradientUnits="userSpaceOnUse" gradientTransform="matrix(0.83 0 0 -0.83 309.51 -82.65)"  cx="330.698" cy="-199.877" r="2.247" fx="330.698" fy="-199.877">
<stop offset="0%" style="stop-color:rgb(255,255,255);stop-opacity: 1"/>
<stop offset="100%" style="stop-color:rgb(255,255,255);stop-opacity: 0"/>
</radialGradient>
<path style="stroke: none; stroke-width: 1; stroke-dasharray: none; stroke-linecap: butt; stroke-dashoffset: 0; stroke-linejoin: miter; stroke-miterlimit: 4; fill: url(#SVGID_22); fill-rule: nonzero; opacity: 1;"  transform=" translate(-582.8, -82.5)" d="M 584.7 82.5 c 0 1 -0.8 1.9 -1.9 1.9 s -1.9 -0.8 -1.9 -1.9 c 0 -1 0.8 -1.9 1.9 -1.9 s 1.9 0.9 1.9 1.9 z" stroke-linecap="round" />
</g>
<g transform="matrix(4.67 0 0 4.67 482.85 141.66)"  >
<path style="stroke: rgb(255,255,255); stroke-width: 1; stroke-dasharray: none; stroke-linecap: butt; stroke-dashoffset: 0; stroke-linejoin: miter; stroke-miterlimit: 4; fill: rgb(255,255,255); fill-rule: nonzero; opacity: 1;"  transform=" translate(-582.45, -82.05)" d="M 581.4 83.1 c 0.6 -0.6 1.5 -1 3 -0.8 c -0.5 -0.6 -1 -1 -1.7 -1.3 c -1.3 0.3 -1.9 0.9 -2.2 1.7 c 0.2 0 0.4 0.1 0.9 0.4 z" stroke-linecap="round" />
</g>
<g transform="matrix(4.67 0 0 4.67 302.82 366.99)"  >
<path style="stroke: none; stroke-width: 1; stroke-dasharray: none; stroke-linecap: butt; stroke-dashoffset: 0; stroke-linejoin: miter; stroke-miterlimit: 4; fill: rgb(0,0,0); fill-rule: nonzero; opacity: 1;"  transform=" translate(-543.9, -130.3)" d="M 548.9 125.5 c -1.4 0 -2.4 0.5 -2.8 1.6 c -0.2 0.4 -0.2 0.5 -0.2 1.2 c 0 0.6 0.1 0.8 0.2 1 c 0.4 0.7 0.9 1 2.6 1.6 c 1.7 0.6 2 0.8 2 1.5 c 0 0.4 -0.2 0.7 -0.7 1 c -0.3 0.2 -0.4 0.2 -1 0.2 c -0.8 0 -1.3 -0.2 -1.9 -0.7 c -0.2 -0.2 -0.5 -0.3 -0.5 -0.3 c -0.1 0 -1 0.9 -1 1 c 0 0.1 0.7 0.7 1 0.9 c 0.4 0.2 0.8 0.4 1.3 0.5 c 0.6 0.1 1.9 0.1 2.4 -0.1 c 0.9 -0.3 1.5 -0.8 1.8 -1.5 c 0.1 -0.3 0.2 -0.5 0.2 -1.1 c 0 -0.7 0 -0.8 -0.2 -1.1 c -0.2 -0.4 -0.6 -0.8 -1.1 -1.1 c -0.2 -0.1 -0.9 -0.4 -1.6 -0.6 c -0.7 -0.2 -1.4 -0.5 -1.5 -0.6 c -0.5 -0.3 -0.6 -0.9 -0.2 -1.3 c 0.5 -0.6 2 -0.6 2.9 0.1 c 0.2 0.2 0.4 0.3 0.4 0.3 c 0.1 0 1 -0.9 1 -1 c 0 -0.2 -0.6 -0.7 -1.2 -0.9 c -0.7 -0.5 -1.1 -0.6 -1.9 -0.6 z m 20.9 0 c -0.9 0 -1.4 0.1 -2.1 0.5 c -0.9 0.5 -1.6 1.3 -2 2.6 c -0.1 0.5 -0.2 0.7 -0.2 1.7 c 0 1.3 0.1 1.8 0.5 2.6 c 0.6 1.1 1.6 1.9 2.8 2.1 c 1.5 0.3 3.1 -0.1 4 -1 c 0.8 -0.8 1 -1.6 1.1 -3.2 v -1.1 h -3.8 v 1.8 h 0.6 c 0.6 0 0.6 0 0.6 0.2 c 0 0.4 -0.3 0.9 -0.7 1 c -0.3 0.1 -1 0.1 -1.3 0 c -0.3 -0.1 -0.7 -0.6 -0.9 -1 c -0.2 -0.6 -0.2 -1.4 -0.1 -2 c 0.2 -1.2 0.6 -1.8 1.5 -1.8 c 0.3 0 0.8 0.2 0.9 0.4 c 0.1 0.1 0.2 0.2 0.3 0.2 c 0.2 0 2.2 -0.8 2.3 -0.9 c 0.1 -0.1 -0.3 -0.8 -0.7 -1.1 c -0.6 -0.7 -1.5 -1 -2.8 -1 z m -39.4 0.2 v 9.2 h 1.8 c 1.4 0 1.9 -0.1 2.2 -0.2 c 2 -0.6 3.1 -2.1 3.1 -4.5 c 0 -0.9 -0.1 -1.6 -0.5 -2.3 c -0.5 -1 -1.2 -1.7 -2.3 -2 c -0.5 -0.2 -0.6 -0.2 -2.4 -0.2 h -1.9 z m -7.4 0 h -1.6 v 9.1 c 0 0.1 0.2 0.1 0.7 0.1 h 0.7 v -3.2 c 0 -1.5 -0.1 -3.1 -0.1 -3.1 s 0.1 0 0.8 1 c 0.4 0.6 1.3 2.1 2 3.2 l 1.4 2.1 h 1.4 v -9.2 h -1.6 v 3.2 c 0 2.1 0 3.2 -0.1 3.1 c 0 -0.1 -0.9 -1.5 -2 -3.2 l -1.6 -3.1 z m 57 0 h -2.7 l -3.2 9.1 h 2.8 l 0.4 -1.5 l 2.6 0.1 l 0.5 1.5 l 2.8 -0.1 l -3.2 -9.1 z m -75.4 0 v 9.2 c 0.1 0.1 4 0.1 4.5 0 s 1.2 -0.4 1.5 -0.7 c 0.5 -0.5 0.9 -1.5 0.8 -2.4 c -0.1 -0.8 -0.4 -1.4 -1 -1.7 c -0.1 -0.1 -0.3 -0.2 -0.3 -0.2 l 0.3 -0.3 c 0.5 -0.4 0.6 -0.8 0.6 -1.7 c 0 -0.6 -0.1 -0.7 -0.2 -1.1 c -0.3 -0.5 -0.7 -0.9 -1.3 -1.1 c -0.4 -0.1 -0.6 -0.1 -2.7 -0.1 h -2.2 z m 13.6 0 v 2.7 c 0 1.5 0 2.9 -0.1 3.2 c -0.2 1.3 -0.8 1.9 -2 1.8 c -0.8 0 -1.4 -0.4 -1.7 -1.2 c -0.1 -0.3 -0.1 -0.5 -0.2 -3.5 v -3.1 h -1.6 v 3.1 c -0.1 2.9 0 6.2 3.5 6.3 c 1.8 0 2.9 -0.8 3.4 -2.5 c 0.1 -0.3 0.1 -0.9 0.1 -3.6 v -3.2 h -1.4 z m 43.1 0 v 9.2 h 2.7 v -9.2 h -2.7 z m -22.7 0 v 9.1 c 0 0.1 0.7 0.1 3.1 0.1 h 3.1 v -1.6 h -4.6 v -2.6 h 2.6 v -1.6 h -2.6 v -2 h 4.4 v -1.4 h -6 z m 15.3 0 v 9.1 c 0 0.1 0.7 0.1 3.1 0.1 h 3 v -2.4 h -3.4 v -6.8 h -2.7 z m -46.3 1.4 c 0.5 0 0.9 0 1 0.1 c 0.6 0.1 1 0.6 0.9 1.2 c 0 0.4 -0.4 0.7 -0.7 0.8 c -0.1 0 -0.8 0.1 -1.5 0.1 H 506 v -2.2 h 1.6 z m 24.3 0 h 0.4 c 0.6 0 1.6 0.1 1.9 0.2 c 1.1 0.4 1.6 1.4 1.6 2.9 c 0 0.7 -0.1 1.2 -0.3 1.7 c -0.3 0.7 -0.9 1.1 -1.7 1.3 c -0.3 0.1 -0.8 0.1 -1.2 0.1 h -0.7 v -6.2 z m 46.7 1.7 l 0.7 2.4 h -1.5 l 0.8 -2.4 z m -72.6 1.8 h 1.2 c 1.6 0 1.9 0.1 2.2 0.4 c 0.7 0.7 0.4 2 -0.5 2.3 c -0.2 0 -0.9 0.1 -1.6 0.1 H 506 v -2.8 z" stroke-linecap="round" />
</g>
</svg>