<?xml version="1.0" encoding="UTF-8" standalone="no" ?>
<!DOCTYPE svg PUBLIC "-//W3C//DTD SVG 1.1//EN" "http://www.w3.org/Graphics/SVG/1.1/DTD/svg11.dtd">
<svg xmlns="http://www.w3.org/2000/svg" xmlns:xlink="http://www.w3.org/1999/xlink" version="1.1" width="640" height="480" viewBox="0 0 640 480" xml:space="preserve">
<desc>Created with Fabric.js 3.6.6</desc>
<defs>
</defs>
<g transform="matrix(1.88 0 0 1.88 457.21 382.77)" id="Layer_1"  >
<path style="stroke: none; stroke-width: 1; stroke-dasharray: none; stroke-linecap: butt; stroke-dashoffset: 0; stroke-linejoin: miter; stroke-miterlimit: 4; fill: rgb(29,40,73); fill-rule: nonzero; opacity: 1;"  transform=" translate(-242.66, -203.6)" d="M 242.7 204.6 h -0.1 c 0 -0.5 0 -1.1 0.1 -1.6 c 0 -0.1 0.1 -0.3 -0.1 -0.4 h 0.1 V 204.6 z" stroke-linecap="round" />
</g>
<g transform="matrix(1.88 0 0 1.88 271.19 359.27)" id="Layer_1"  >
<path style="stroke: none; stroke-width: 1; stroke-dasharray: none; stroke-linecap: butt; stroke-dashoffset: 0; stroke-linejoin: miter; stroke-miterlimit: 4; fill: rgb(29,40,73); fill-rule: nonzero; opacity: 1;"  transform=" translate(-143.72, -191.1)" d="M 135.9 207.6 c 0 -0.2 0 -0.4 0 -0.6 v -32.2 c 0 -0.3 0 -0.3 0.3 -0.3 h 0.3 c 2.4 0 4.7 0 7.1 0 c 1 0 1.9 0.1 2.8 0.4 c 0.8 0.2 1.6 0.5 2.3 1 c 1.5 0.9 2.4 2.5 2.4 4.3 c 0 0.6 0 1.2 0 1.8 c 0 3 0 6 0 8.9 c 0 0.5 -0.1 1.1 -0.2 1.6 c -0.3 1.3 -1.2 2.3 -2.3 3 l -0.8 0.5 c 0 0.1 0 0.3 0.1 0.4 c 1.4 3 2.5 6.1 3.2 9.3 c 0.1 0.5 0.3 1.1 0.4 1.6 c 0.1 0.3 0 0.4 -0.3 0.4 h -4.8 c -0.4 0 -0.4 0 -0.4 -0.4 c -0.3 -1.3 -0.7 -2.6 -1.1 -3.9 c -0.7 -2.2 -1.6 -4.3 -2.7 -6.3 c -0.1 -0.2 -0.2 -0.4 -0.2 -0.6 c 0 -0.7 0 -1.5 0 -2.2 c 0 -0.2 0.1 -0.4 0.3 -0.4 c 0.6 -0.2 1.2 -0.5 1.8 -0.9 c 0.5 -0.3 0.9 -0.6 1.3 -0.9 c 0.3 -0.2 0.5 -0.6 0.4 -1 c 0 -2.5 0 -5 0 -7.5 c 0 -1.1 0 -2.1 0 -3.2 c 0 -0.3 0 -0.4 -0.3 -0.5 c -0.5 -0.2 -1 -0.3 -1.5 -0.3 c -0.9 0 -1.8 0 -2.7 0 c -0.2 0 -0.2 0.1 -0.2 0.2 s 0 0.4 0 0.6 v 27.1 c 0 0.2 -0.1 0.2 -0.2 0.2 h -4.5 C 136.2 207.6 136.1 207.6 135.9 207.6 z" stroke-linecap="round" />
</g>
<g transform="matrix(1.88 0 0 1.88 234.03 359.07)" id="Layer_1"  >
<path style="stroke: none; stroke-width: 1; stroke-dasharray: none; stroke-linecap: butt; stroke-dashoffset: 0; stroke-linejoin: miter; stroke-miterlimit: 4; fill: rgb(29,40,73); fill-rule: nonzero; opacity: 1;"  transform=" translate(-123.95, -191)" d="M 116.5 191 v -11.1 c 0 -0.4 0 -0.8 0.1 -1.3 c 0.2 -1.2 0.9 -2.3 1.9 -3.1 c 0.8 -0.6 1.6 -1 2.6 -1.2 c 2.2 -0.6 4.4 -0.5 6.5 0.2 c 0.8 0.2 1.5 0.6 2.1 1.1 c 1.2 0.9 1.9 2.3 1.9 3.8 c 0 0.2 0 0.4 0 0.5 v 22.2 c 0 0.6 0 1.1 -0.2 1.6 c -0.3 1 -0.8 1.9 -1.7 2.6 c -0.9 0.7 -1.9 1.2 -2.9 1.4 c -2.2 0.6 -4.5 0.5 -6.7 -0.3 c -0.6 -0.2 -1.2 -0.5 -1.7 -0.9 c -1.3 -0.9 -2.1 -2.4 -2.1 -4 c 0 -1.3 0 -2.6 0 -3.9 L 116.5 191 z M 126.5 191 v -8.4 c 0 -0.9 0 -1.8 0 -2.7 c 0 -0.4 0 -0.5 -0.4 -0.6 c -1.2 -0.4 -2.5 -0.4 -3.7 0 c -0.6 0.2 -0.6 0.1 -0.6 0.8 v 21.8 c 0 0.2 0 0.3 0 0.5 c 0 0.3 0 0.4 0.3 0.5 c 1.2 0.4 2.5 0.5 3.8 0.1 c 0.7 -0.2 0.6 -0.2 0.6 -0.8 C 126.4 198.3 126.4 194.7 126.5 191 L 126.5 191 z" stroke-linecap="round" />
</g>
<g transform="matrix(1.88 0 0 1.88 374.18 358.96)" id="Layer_1"  >
<path style="stroke: none; stroke-width: 1; stroke-dasharray: none; stroke-linecap: butt; stroke-dashoffset: 0; stroke-linejoin: miter; stroke-miterlimit: 4; fill: rgb(29,40,73); fill-rule: nonzero; opacity: 1;"  transform=" translate(-198.5, -190.93)" d="M 196.1 191 c 0 3.6 0 7.3 0 10.9 c 0 0.8 -0.2 0.7 0.7 0.9 c 1.2 0.3 2.4 0.3 3.5 -0.1 c 0.4 -0.1 0.4 -0.1 0.4 -0.6 c 0 -2.8 0 -5.6 0 -8.4 c 0 -0.3 -0.1 -0.5 -0.3 -0.7 c -0.7 -0.7 -1.5 -1.3 -2.4 -1.8 l -0.4 -0.2 c -0.2 -0.1 -0.2 -0.2 -0.2 -0.4 v -2.3 c 0 -0.2 0.1 -0.3 0.3 -0.3 h 8.1 c 0.1 0 0.2 0.1 0.2 0.2 c 0 0 0 0 0 0 c 0 0.2 0 0.3 0 0.5 v 13.3 c 0 0.5 0 0.9 -0.1 1.4 c -0.3 1.2 -1 2.3 -2 3 c -0.8 0.6 -1.7 1 -2.6 1.2 c -2.1 0.5 -4.3 0.5 -6.3 -0.2 c -0.7 -0.2 -1.4 -0.6 -2 -1 c -1.3 -0.9 -2.1 -2.3 -2.1 -3.9 c 0 -0.2 0 -0.4 0 -0.6 V 180 c 0 -0.5 0 -1 0.1 -1.5 c 0.2 -1.1 0.8 -2.1 1.7 -2.8 c 0.8 -0.7 1.8 -1.1 2.8 -1.4 c 2.3 -0.6 4.7 -0.5 6.9 0.3 c 0.7 0.3 1.4 0.7 2 1.2 c 1 0.8 1.6 2 1.7 3.4 c 0 0.1 0 0.2 0 0.3 c 0 1.4 0 2.7 0 4.1 c 0 0.4 0 0.4 -0.4 0.4 c -0.6 0.1 -1.1 0.3 -1.7 0.3 c -0.9 0.1 -1.9 0.2 -2.8 0.3 c -0.4 0 -0.4 0 -0.4 -0.4 c 0 -1.4 0 -2.8 0 -4.1 c 0 -0.8 0.1 -0.7 -0.7 -0.9 c -1.2 -0.3 -2.5 -0.3 -3.7 0.1 c -0.2 0 -0.3 0.2 -0.3 0.4 c 0 0.1 0 0.3 0 0.5 L 196.1 191 z" stroke-linecap="round" />
</g>
<g transform="matrix(1.88 0 0 1.88 245.02 284.66)" id="Layer_1"  >
<path style="stroke: none; stroke-width: 1; stroke-dasharray: none; stroke-linecap: butt; stroke-dashoffset: 0; stroke-linejoin: miter; stroke-miterlimit: 4; fill: rgb(29,40,73); fill-rule: nonzero; opacity: 1;"  transform=" translate(-129.8, -151.42)" d="M 122.2 151.4 v -11 c 0 -0.5 0 -1 0.1 -1.5 c 0.2 -1.2 0.9 -2.3 1.9 -3 c 0.8 -0.6 1.8 -1 2.8 -1.3 c 2.1 -0.5 4.4 -0.4 6.5 0.3 c 0.5 0.2 1.1 0.5 1.5 0.8 c 1.4 0.9 2.3 2.4 2.3 4.1 c 0 1.4 0 2.8 0 4.1 c 0 0.3 0 0.3 -0.3 0.4 c -0.4 0.1 -0.8 0.2 -1.2 0.3 c -1.1 0.2 -2.2 0.3 -3.2 0.4 h -0.2 c -0.2 0 -0.3 -0.1 -0.3 -0.3 v -3 c 0 -0.5 0 -1.1 0 -1.6 c 0 -0.2 -0.1 -0.4 -0.3 -0.4 c -1.3 -0.4 -2.8 -0.4 -4.1 0 c -0.2 0 -0.3 0.2 -0.3 0.4 c 0 0.1 0 0.3 0 0.4 c 0 7.2 0 14.5 0 21.8 c 0 0.8 -0.2 0.8 0.8 1 c 1.2 0.3 2.4 0.3 3.6 -0.1 c 0.2 0 0.3 -0.2 0.3 -0.4 c 0 -0.1 0 -0.2 0 -0.3 c 0 -2.7 0 -5.4 0 -8.1 c 0 -0.4 -0.1 -0.8 -0.4 -1.1 c -0.7 -0.8 -1.6 -1.3 -2.6 -1.7 c -0.2 -0.1 -0.4 -0.3 -0.3 -0.5 c 0 -0.7 0 -1.5 0 -2.2 c 0 -0.2 0.1 -0.3 0.3 -0.3 h 8 c 0.2 0 0.3 0.1 0.3 0.3 c 0 0.2 0 0.3 0 0.5 c 0 4.4 0 8.8 0 13.2 c 0 0.5 0 1 -0.1 1.5 c -0.2 1.1 -0.9 2.1 -1.8 2.8 c -1 0.7 -2.1 1.2 -3.2 1.4 c -1.9 0.4 -3.8 0.3 -5.7 -0.2 c -0.8 -0.2 -1.6 -0.6 -2.3 -1.1 c -1.2 -0.9 -2 -2.3 -2 -3.8 c 0 -0.3 0 -0.6 0 -0.9 L 122.2 151.4 z" stroke-linecap="round" />
</g>
<g transform="matrix(1.88 0 0 1.88 337.52 359.41)" id="Layer_1"  >
<path style="stroke: none; stroke-width: 1; stroke-dasharray: none; stroke-linecap: butt; stroke-dashoffset: 0; stroke-linejoin: miter; stroke-miterlimit: 4; fill: rgb(29,40,73); fill-rule: nonzero; opacity: 1;"  transform=" translate(-179, -191.18)" d="M 171.4 188.8 v -13.6 c 0 -0.2 0 -0.4 0 -0.6 c 0 -0.1 0.1 -0.2 0.2 -0.2 c 0 0 0 0 0.1 0 h 4.7 c 0.2 0 0.3 0.1 0.3 0.3 s 0 0.4 0 0.6 v 26.8 c 0 0.5 -0.1 0.5 0.5 0.7 c 1.3 0.4 2.6 0.4 3.9 0 c 0.3 -0.1 0.3 -0.1 0.3 -0.5 s 0 -0.4 0 -0.5 v -26.5 c 0 -1 -0.1 -0.9 0.8 -0.9 h 4.1 c 0.1 0 0.2 0.1 0.3 0.2 c 0 0 0 0 0 0 c 0 0.1 0 0.1 0 0.2 c 0 0.1 0 0.2 0 0.3 c 0 9 0 18 0 27 c 0 0.5 0 1 -0.2 1.5 c -0.3 1.2 -1 2.2 -2 2.9 c -0.8 0.5 -1.6 0.9 -2.5 1.1 c -2.1 0.5 -4.3 0.5 -6.4 -0.2 c -1 -0.3 -2 -0.9 -2.7 -1.6 c -0.8 -0.8 -1.3 -1.9 -1.4 -3.1 c 0 -0.3 0 -0.5 0 -0.8 L 171.4 188.8 z" stroke-linecap="round" />
</g>
<g transform="matrix(1.88 0 0 1.88 409.97 358.85)" id="Layer_1"  >
<path style="stroke: none; stroke-width: 1; stroke-dasharray: none; stroke-linecap: butt; stroke-dashoffset: 0; stroke-linejoin: miter; stroke-miterlimit: 4; fill: rgb(29,40,73); fill-rule: nonzero; opacity: 1;"  transform=" translate(-217.54, -190.88)" d="M 208.9 207.6 c 0 -0.5 0.1 -0.9 0.2 -1.4 c 0.3 -2.3 0.7 -4.6 1 -7 c 0.4 -2.5 0.8 -5 1.1 -7.6 c 0.4 -2.8 0.8 -5.6 1.2 -8.4 c 0.4 -2.5 0.8 -5 1.1 -7.6 c 0 -0.3 0.1 -0.7 0.1 -1 c 0 -0.2 0.1 -0.3 0.3 -0.3 c 0 0 0 0 0 0 c 0.4 0 0.7 -0.1 1.1 -0.1 c 2 -0.1 4.1 -0.1 6.1 0.1 c 0.4 0 0.4 0 0.4 0.4 l 0.5 3.5 c 0.2 1.4 0.4 2.9 0.6 4.3 s 0.4 2.8 0.6 4.1 l 0.7 5.1 c 0.2 1.4 0.4 2.8 0.6 4.2 s 0.4 2.8 0.6 4.1 s 0.4 2.8 0.6 4.1 c 0.1 0.9 0.2 1.7 0.4 2.6 c 0.1 0.2 0.1 0.5 0 0.7 c -0.5 0.1 -4.4 0.1 -5.1 0 c -0.1 -0.2 -0.1 -0.3 -0.1 -0.5 c -0.1 -1.1 -0.3 -2.2 -0.4 -3.3 c 0 -0.3 -0.2 -0.6 -0.5 -0.8 c -1.1 -0.7 -2.2 -1.3 -3.5 -1.7 c -0.2 0 -0.4 -0.1 -0.6 -0.2 c -0.2 -0.2 0 -0.4 0 -0.6 c 0.1 -0.6 0.2 -1.2 0.3 -1.8 c 0 -0.3 0.1 -0.4 0.4 -0.4 h 2.3 h 0.6 c -0.1 -0.4 -0.1 -0.8 -0.1 -1.1 c -0.3 -2.2 -0.6 -4.4 -0.9 -6.6 l -0.9 -6.7 c 0 -0.1 0 -0.1 -0.1 -0.2 c 0 0 -0.1 -0.1 -0.1 -0.1 c 0 0 -0.1 0 -0.1 0.1 c 0 0.1 -0.1 0.2 -0.1 0.2 c -0.2 1.7 -0.5 3.4 -0.7 5.1 s -0.5 3.5 -0.8 5.3 l -0.7 5.3 c -0.3 2.1 -0.6 4.1 -0.9 6.2 l -0.2 1.6 c 0 0.3 -0.1 0.3 -0.3 0.3 H 209 C 209 207.7 208.9 207.6 208.9 207.6 z" stroke-linecap="round" />
</g>
<g transform="matrix(1.88 0 0 1.88 281.12 284.28)" id="Layer_1"  >
<path style="stroke: none; stroke-width: 1; stroke-dasharray: none; stroke-linecap: butt; stroke-dashoffset: 0; stroke-linejoin: miter; stroke-miterlimit: 4; fill: rgb(29,40,73); fill-rule: nonzero; opacity: 1;"  transform=" translate(-149, -151.21)" d="M 157.7 167.9 c -1.7 0.1 -3.5 0.1 -5.2 0 c -0.1 -0.5 -0.2 -1.1 -0.3 -1.6 c -0.1 -0.8 -0.2 -1.5 -0.3 -2.3 c 0 -0.3 -0.2 -0.6 -0.4 -0.8 c -1 -0.7 -2.1 -1.3 -3.3 -1.6 l -0.7 -0.2 c -0.1 0 -0.1 -0.1 -0.1 -0.2 c 0 0 0 0 0 0 c 0.1 -0.8 0.2 -1.6 0.4 -2.4 c 0 -0.2 0.1 -0.3 0.4 -0.3 h 2.3 c 0.2 0 0.5 0 0.7 -0.1 c 0 -0.4 -0.1 -0.9 -0.1 -1.3 c -0.2 -1.8 -0.5 -3.6 -0.8 -5.5 s -0.5 -3.5 -0.7 -5.3 c -0.1 -0.7 -0.2 -1.5 -0.3 -2.2 c 0 -0.1 0 -0.2 -0.1 -0.3 c 0 0 -0.1 -0.1 -0.1 -0.1 c 0 0 -0.1 0 -0.1 0.1 c 0 0.1 -0.1 0.2 -0.1 0.3 c -0.2 1.7 -0.5 3.4 -0.7 5.1 l -0.8 5.3 l -0.7 5.3 l -0.8 5.3 c -0.1 0.8 -0.2 1.5 -0.3 2.3 c 0 0.1 0 0.2 0 0.3 c 0 0.1 -0.1 0.2 -0.2 0.2 h -4.9 c -0.1 0 -0.1 0 -0.2 -0.1 c 0 -0.4 0.1 -0.9 0.1 -1.3 c 0.3 -2 0.6 -4 0.9 -6 l 0.9 -5.8 c 0.3 -1.9 0.6 -3.9 0.9 -5.8 s 0.6 -3.9 0.9 -5.8 l 1 -6.6 c 0.1 -0.5 0.2 -1 0.2 -1.5 c 0 -0.3 0.1 -0.3 0.4 -0.4 h 0.3 c 2.2 -0.2 4.4 -0.2 6.6 0 c 0.1 0 0.3 0 0.4 0.1 c 0.1 0 0.2 0.1 0.2 0.2 c 0.1 0.5 0.1 1 0.2 1.4 c 0.4 2.6 0.7 5.3 1.1 7.9 c 0.3 2.3 0.7 4.6 1 7 c 0.3 2.4 0.7 4.7 1 7 c 0.4 2.3 0.7 4.6 1 7 c 0.1 0.7 0.2 1.3 0.3 2 C 157.6 167.5 157.6 167.7 157.7 167.9 z" stroke-linecap="round" />
</g>
<g transform="matrix(1.88 0 0 1.88 198.12 359.08)" id="Layer_1"  >
<path style="stroke: none; stroke-width: 1; stroke-dasharray: none; stroke-linecap: butt; stroke-dashoffset: 0; stroke-linejoin: miter; stroke-miterlimit: 4; fill: rgb(29,40,73); fill-rule: nonzero; opacity: 1;"  transform=" translate(-104.85, -191)" d="M 97.3 191 v -15.8 c 0 -0.9 -0.1 -0.8 0.8 -0.8 c 2.3 0 4.5 0 6.8 0 c 1.3 0 2.5 0.2 3.7 0.6 c 0.7 0.2 1.4 0.6 2 1.1 c 1.2 0.9 1.9 2.4 1.9 3.9 v 12.4 c 0 0.8 -0.1 1.5 -0.4 2.2 c -0.4 0.9 -1.1 1.7 -2 2.2 c -1 0.6 -2 1 -3.1 1.2 c -1.1 0.2 -2.1 0.2 -3.2 0.1 c -0.2 0 -0.3 0 -0.3 -0.3 v -2.3 c 0 -0.2 0.1 -0.3 0.2 -0.3 c 0.6 -0.2 1.2 -0.5 1.8 -0.9 c 0.5 -0.3 1 -0.7 1.4 -1.1 c 0.2 -0.2 0.3 -0.5 0.3 -0.8 c 0 -0.5 0 -1 0 -1.5 c 0 -3.5 0 -7 0 -10.4 c 0 -0.8 0.1 -0.7 -0.7 -0.9 c -0.4 -0.1 -0.9 -0.2 -1.3 -0.2 h -2.4 c -0.3 0 -0.3 0 -0.3 0.3 v 27.1 c 0 0.9 0.1 0.8 -0.8 0.8 h -4.3 c -0.1 0 -0.2 -0.1 -0.2 -0.2 c 0 -0.2 0 -0.4 0 -0.6 L 97.3 191 z" stroke-linecap="round" />
</g>
<g transform="matrix(1.88 0 0 1.88 303.68 359.18)" id="Layer_1"  >
<path style="stroke: none; stroke-width: 1; stroke-dasharray: none; stroke-linecap: butt; stroke-dashoffset: 0; stroke-linejoin: miter; stroke-miterlimit: 4; fill: rgb(29,40,73); fill-rule: nonzero; opacity: 1;"  transform=" translate(-161, -191.05)" d="M 158.4 193.5 v -13.2 c 0 -0.2 0 -0.4 0 -0.6 c 0 -0.1 -0.1 -0.2 -0.2 -0.2 c 0 0 0 0 0 0 h -4.8 c -0.1 0 -0.2 -0.1 -0.2 -0.2 v -4.4 c 0 -0.1 0 -0.1 0 -0.2 c 0 -0.1 0.1 -0.2 0.2 -0.2 c 0 0 0 0 0 0 h 15 c 0.3 0 0.4 0 0.4 0.3 v 4 c 0 0.1 0 0.3 0 0.5 c 0 0.1 -0.1 0.2 -0.2 0.2 c 0 0 0 0 0 0 h -4.4 c -0.2 0 -0.3 0 -0.5 0 c 0 0 -0.1 0.1 -0.1 0.1 c 0 0.1 0 0.1 0 0.2 v 27 c 0 0.9 0.1 0.8 -0.8 0.8 h -4.2 c -0.1 0 -0.2 -0.1 -0.2 -0.2 c 0 0 0 0 0 0 c 0 -0.2 0 -0.4 0 -0.6 V 193.5 z" stroke-linecap="round" />
</g>
<g transform="matrix(1.88 0 0 1.88 444.79 359.08)" id="Layer_1"  >
<path style="stroke: none; stroke-width: 1; stroke-dasharray: none; stroke-linecap: butt; stroke-dashoffset: 0; stroke-linejoin: miter; stroke-miterlimit: 4; fill: rgb(29,40,73); fill-rule: nonzero; opacity: 1;"  transform=" translate(-236.06, -191)" d="M 242.6 202.6 c 0.2 0.1 0.1 0.3 0.1 0.4 c -0.1 0.5 -0.1 1.1 -0.1 1.6 c 0 0.9 -0.1 1.7 -0.3 2.6 v 0.2 c 0 0.1 -0.1 0.2 -0.2 0.2 H 230 c -0.6 0 -0.6 0 -0.6 -0.6 v -11.7 c 0 -6.7 0 -13.3 0 -20 c 0 -1 -0.1 -0.9 0.9 -0.9 h 4.1 c 0.1 0 0.2 0.1 0.2 0.2 c 0 0 0 0 0 0 c 0 0.2 0 0.4 0 0.6 c 0 8.8 0 17.7 0 26.5 c 0 0.3 -0.1 0.6 0.1 0.8 s 0.5 0.1 0.8 0.1 L 242.6 202.6 z" stroke-linecap="round" />
</g>
<g transform="matrix(1.88 0 0 1.88 196.33 284.82)" id="Layer_1"  >
<path style="stroke: none; stroke-width: 1; stroke-dasharray: none; stroke-linecap: butt; stroke-dashoffset: 0; stroke-linejoin: miter; stroke-miterlimit: 4; fill: rgb(29,40,73); fill-rule: nonzero; opacity: 1;"  transform=" translate(-103.9, -151.5)" d="M 97.3 151.4 v -16.2 c 0 -0.2 0 -0.3 0.3 -0.3 h 4.4 c 0.5 0 0.5 0 0.5 0.5 v 27.4 c 0 0.2 0 0.3 0.3 0.3 h 7.4 c 0.2 0 0.3 0.1 0.3 0.3 c 0 0.6 -0.1 1.3 -0.1 1.9 c -0.1 0.6 -0.1 1.3 -0.2 2 c 0 0.2 -0.1 0.4 -0.1 0.5 c 0 0.1 -0.1 0.3 -0.2 0.3 c 0 0 0 0 -0.1 0 c -0.2 0 -0.3 0 -0.5 0 H 97.5 c -0.2 0 -0.2 -0.1 -0.2 -0.3 V 151.4 z" stroke-linecap="round" />
</g>
<g transform="matrix(1.88 0 0 1.88 217.76 284.63)" id="Layer_1"  >
<path style="stroke: none; stroke-width: 1; stroke-dasharray: none; stroke-linecap: butt; stroke-dashoffset: 0; stroke-linejoin: miter; stroke-miterlimit: 4; fill: rgb(29,40,73); fill-rule: nonzero; opacity: 1;"  transform=" translate(-115.3, -151.4)" d="M 112.7 151.4 v -15.8 c 0 -0.9 -0.1 -0.8 0.7 -0.8 h 3.8 c 0.2 0 0.4 0 0.5 0 c 0.1 0 0.2 0.1 0.2 0.2 c 0 0.2 0 0.3 0 0.5 v 32 c 0 0.5 0 0.5 -0.5 0.5 h -4.5 c -0.2 0 -0.2 -0.1 -0.2 -0.3 V 151.4 L 112.7 151.4 z" stroke-linecap="round" />
</g>
<g transform="matrix(1.88 0 0 1.88 248.76 48.97)" id="Layer_1"  >
<path style="stroke: none; stroke-width: 1; stroke-dasharray: none; stroke-linecap: butt; stroke-dashoffset: 0; stroke-linejoin: miter; stroke-miterlimit: 4; fill: rgb(29,40,73); fill-rule: nonzero; opacity: 1;"  transform=" translate(-131.79, -26.05)" d="M 131.9 26.2 l -0.5 -0.2 c 0 0 -0.1 -0.1 0.1 -0.1 h 0.7 V 26 h -0.2 C 132 26 131.9 26.1 131.9 26.2 z" stroke-linecap="round" />
</g>
<g transform="matrix(1.88 0 0 1.88 322.67 188.66)" id="Layer_1"  >
<path style="stroke: none; stroke-width: 1; stroke-dasharray: none; stroke-linecap: butt; stroke-dashoffset: 0; stroke-linejoin: miter; stroke-miterlimit: 4; fill: rgb(29,40,73); fill-rule: nonzero; opacity: 1;"  transform=" translate(-171.1, -100.35)" d="M 131.9 26.2 c 0 -0.1 0 -0.1 0.1 -0.1 h 0.2 c 4.5 0.7 8.8 1.8 13.1 3.2 C 157 33 167.9 39 177.3 46.9 c 6.9 5.8 12.9 12.6 17.8 20.1 l 0.2 0.3 c 0.1 0.1 0.1 0.2 -0.1 0.3 c -0.2 0.1 -0.3 0.2 -0.5 0.3 l -10.5 5.9 l -0.7 0.4 c 0.1 0.2 0.3 0.4 0.4 0.6 c 3.9 5.6 7.4 11.4 10.5 17.4 c 5.1 10 9 20.5 11.7 31.4 c 0.9 3.6 1.6 7.2 2.2 10.9 c 0.4 2.5 0.8 5 1.1 7.6 c 0.3 2.9 0.6 5.7 0.7 8.6 c 0.2 3.2 0.2 6.4 0.2 9.6 c 0 2.4 -0.1 4.8 -0.3 7.2 s -0.4 4.5 -0.8 6.8 c 0 0.1 0 0.3 -0.1 0.3 c -0.1 -1.2 -0.3 -2.3 -0.4 -3.5 c -0.3 -2 -0.6 -4 -1 -6.1 c -0.6 -3.2 -1.3 -6.5 -2.1 -9.7 c -2.4 -10 -5.6 -19.9 -9.5 -29.5 c -5.6 -13.7 -12.7 -26.8 -21.2 -38.9 c -3.9 -5.5 -8 -10.7 -12.5 -15.7 l -0.4 -0.5 c 0.2 -0.2 0.4 -0.3 0.6 -0.4 L 174 64 c 0.2 -0.1 0.4 -0.2 0.6 -0.4 l -0.4 -0.6 c -3.4 -4.5 -7.1 -8.9 -11.1 -12.9 c -8.1 -8.3 -17.2 -15.5 -27.1 -21.6 c -1.2 -0.7 -2.4 -1.4 -3.6 -2.1 C 132.2 26.3 132.1 26.2 131.9 26.2 z" stroke-linecap="round" />
</g>
<g transform="matrix(1.88 0 0 1.88 306.57 176.59)" id="Layer_1"  >
<path style="stroke: none; stroke-width: 1; stroke-dasharray: none; stroke-linecap: butt; stroke-dashoffset: 0; stroke-linejoin: miter; stroke-miterlimit: 4; fill: rgb(29,40,73); fill-rule: nonzero; opacity: 1;"  transform=" translate(-162.54, -93.93)" d="M 150.9 78 c 0.2 0 0.4 0.2 0.5 0.4 c 2.8 2.6 5.5 5.3 8 8.2 c 5.1 5.7 9.7 11.9 13.6 18.5 c 0.4 0.7 0.8 1.3 1.1 2 c 0.1 0.2 0.1 0.4 0 0.5 c -0.5 0.7 -1.1 1.4 -1.6 2.1 c -0.2 0.2 -0.2 0.2 -0.6 0.1 l -5.4 -1.8 l -9.6 -3.3 l -0.2 -0.1 c -0.3 -0.1 -0.5 -0.3 -0.5 -0.5 c -0.3 -1.6 -0.7 -3.2 -1 -4.8 L 153.2 89 c -0.8 -3.6 -1.5 -7.2 -2.3 -10.8 C 150.9 78.1 150.9 78.1 150.9 78 z" stroke-linecap="round" />
</g>
<g transform="matrix(1.88 0 0 1.88 319.66 219.02)" id="Layer_1"  >
<rect style="stroke: rgb(238,30,30); stroke-width: 0; stroke-dasharray: none; stroke-linecap: butt; stroke-dashoffset: 0; stroke-linejoin: miter; stroke-miterlimit: 4; fill: rgb(255,255,0); fill-opacity: 0; fill-rule: nonzero; opacity: 1;" vector-effect="non-scaling-stroke"  x="-81" y="-98" rx="0" ry="0" width="162" height="196" />
</g>
</svg>