<?xml version="1.0" encoding="utf-8"?>
<!-- Generator: Adobe Illustrator 19.0.0, SVG Export Plug-In . SVG Version: 6.00 Build 0)  -->
<svg version="1.1" id="Layer_1" xmlns="http://www.w3.org/2000/svg" xmlns:xlink="http://www.w3.org/1999/xlink" x="0px" y="0px"
	 viewBox="0 0 500 500" style="enable-background:new 0 0 500 500;" xml:space="preserve">
<style type="text/css">
	.st0{fill:#369827;}
	.st1{fill:#FFDF00;}
	.st2{fill:#028FD1;}
	.st3{fill:#2F4A89;}
	.st4{fill:#FEFEFE;}
	.st5{fill:#005AA1;}
	.st6{fill:#F4A32E;}
	.st7{fill:#A82583;}
	.st8{fill:#E33029;}
</style>
<g id="XMLID_1_">
	<path id="XMLID_3_" class="st0" d="M96.6,292.7c-1.5-0.3-2.9-0.7-3-0.9c-0.1-0.2,0.8-4.1,2.1-8.8l2.4-8.5l5.8-0.4
		c3.4-0.2,6.8-0.9,8.3-1.7c1.4-0.7,2.6-1.2,2.7-1.1c0.1,0.1,2.6,3.5,5.5,7.6l5.3,7.3l-2.8,1.7C116.1,292,103.8,294.2,96.6,292.7z"/>
	<path id="XMLID_4_" class="st1" d="M126.3,281.4c-2.6-3.7-4.9-7.1-5.1-7.4c-0.1-0.4,0.7-1.7,1.9-3c2.6-2.7,4.2-5.7,4.9-9.2l0.5-2.5
		l8.7,0.3c4.8,0.1,9,0.5,9.3,0.8c0.9,0.9-1.2,8.7-3.8,14.3c-2.2,4.7-9.6,13.6-11.2,13.5C131.3,288.2,128.9,285.1,126.3,281.4z"/>
	<path id="XMLID_5_" class="st2" d="M84.3,282.6c-2.6-1.4-6.7-4.4-9-6.7c-4-4-8.6-11-7.7-11.8c0.5-0.5,15.3-6.8,16-6.8
		c0.2,0,1.5,1.5,2.7,3.3c1.4,1.9,3.9,4.1,6,5.3c2,1.1,3.7,2.4,3.7,2.8c0,0.4-1,4.2-2.2,8.5c-1.2,4.3-2.2,7.8-2.2,7.9
		C91.6,285.9,88.3,284.8,84.3,282.6z"/>
	<path id="XMLID_18_" class="st3" d="M413.9,254.1c-1.5-4.8-5.5-17.7-5.5-18.1c-0.1-0.6-5.8,18.4-5.8,19.2c0,0.3,2.7,0.6,5.9,0.6
		C414.3,255.8,414.4,255.7,413.9,254.1z M391.8,264.8c1.3-4.4,4.5-14.8,7.1-23.2l4.7-15.3h6.1c5.5,0,6.2,0.2,7.2,1.7
		c0.6,0.9,4.4,11.4,8.4,23.2l7.3,21.5H426h-6.5l-1.4-4.6l-1.4-4.6l-8.5-0.2l-8.5-0.2l-1.3,4.8l-1.3,4.8h-3.9h-3.9L391.8,264.8z
		 M362.4,250.4c-4-12.3-7.4-22.7-7.6-23.2c-0.3-0.7,1.1-0.9,5.3-0.9c5.4,0,5.7,0.1,6.9,2.1c0.7,1.2,3.3,8.8,5.7,16.9
		c2.4,8.1,4.5,14.7,4.6,14.5c0.1-0.1,2.5-7.7,5.2-16.7l4.9-16.5l3.9-0.2c3.5-0.2,3.9-0.1,3.5,1.1c-1.3,4.4-11.8,38.8-12.7,41.7
		l-1.1,3.5h-5.7h-5.7L362.4,250.4L362.4,250.4z M343.4,263.6c1.5-1.5,2-2.8,2.2-6.2c0.3-4.9-0.6-7.2-3.9-9.4l-2.3-1.5l2.5-3.6
		c2.7-4,3-5.9,1.3-8.3c-1-1.4-1.8-1.6-5.5-1.6h-4.4v16.7v16.7l4.1-0.3C340.5,265.6,341.9,265.1,343.4,263.6z M322.2,249.4v-23.3
		l12.9,0.2l12.9,0.2l2.3,2.3c3.1,3.1,3.3,7.6,0.3,12l-2,3l3.7,3.3c6.9,6.2,7.4,15.1,1.1,21.1c-3.9,3.7-6.5,4.3-19.4,4.3h-11.8V249.4
		z M302.9,264.6c2.8-1.7,3.9-4,3.8-8.3c0-3.9-1.2-6.3-4.1-8.3l-2.3-1.5l2.5-3.6c2.8-4.2,3.1-6.3,1-8.4c-1.1-1.1-2.5-1.5-5.5-1.5
		h-4.1v16.6v16.6l3.1,0C299.2,266.1,301.5,265.5,302.9,264.6L302.9,264.6z M283.2,249.5v-23.2l12,0c10.6,0,12.2,0.2,14.3,1.4
		c1.3,0.8,2.7,2.2,3.2,3.1c1.5,2.7,1,7.2-1.1,10.4l-1.9,2.9l3.3,2.9c4.1,3.6,5.7,6.9,5.7,11.7c0,4.3-1.1,6.8-4.2,9.8
		c-3.9,3.7-6.5,4.3-19.4,4.3h-11.8V249.5z M263.3,253.4c0-2.9-0.1-5.1-0.3-5c-0.1,0.2-1.5,2.5-3,5.3l-2.8,5h3h3V253.4z M238.5,272.1
		c2.8-5.2,17.4-29,18.5-30.3c2.6-2.9,5.2-3.8,11.1-3.8h5.6v17.3v17.3h-5.2h-5.2V269v-3.7h-4.8h-4.8l-2.3,3.7l-2.3,3.7h-5.5
		C240.6,272.7,238.3,272.5,238.5,272.1L238.5,272.1z M194.8,271.8c0-0.5,2.3-8.2,5-17.2l5-16.2l5.3-0.2c5.2-0.2,5.3-0.2,4.9,1.5
		c-0.2,0.9-2.5,8.7-5.1,17.2l-4.7,15.5l-5.2,0.2C196.1,272.7,194.8,272.5,194.8,271.8L194.8,271.8z M214.9,272.7
		c-2.4-0.9-4.6-5-4.6-8.3c0-7.3,5.5-21.2,9.7-24.1c2.4-1.7,3.2-1.8,14.6-2c11.4-0.2,12-0.2,11.6,1.1c-0.3,0.7-0.9,2.7-1.4,4.5
		l-0.8,3.1h-8.3c-7.7,0-8.4,0.1-9.5,1.7c-1.7,2.4-4.2,11.1-3.9,13.6c0.2,1.9,0.5,2.1,3.6,2.3l3.4,0.2l1.4-3.9l1.4-3.9l5-0.2
		c6-0.3,5.9-0.4,2.7,9.1c-2.2,6.7-2.3,6.7-5,7.2C230.6,273.6,216.8,273.4,214.9,272.7L214.9,272.7z M172,272.7
		c-1.4-0.3-3.4-1.5-4.3-2.6c-1.5-1.8-1.7-2.6-1.4-6.1c0.2-2.3,1.9-8.9,3.6-14.8l3.2-10.7l5.4-0.2c4.9-0.2,5.4-0.1,5,1.1
		c-0.2,0.7-1.8,6.2-3.6,12.1c-4.1,13.8-4.2,13.5,6.5,12.9l7.6-0.5l-0.5,2c-1.4,5.7-2.1,6.6-6.3,7.1
		C182.2,273.6,175.2,273.4,172,272.7L172,272.7z"/>
	<path id="XMLID_25_" class="st4" d="M116.3,250.1c0.2-0.1,0.6-0.7,0.7-1.2c0.3-0.8,0.2-1-0.8-2c-1.4-1.3-1.3-1.2-2.5-0.5
		c-0.7,0.4-1,0.9-1,1.5C112.7,249.5,115,250.9,116.3,250.1z M116.6,256c1.2-0.9,1.1-2.2-0.2-3.1c-0.8-0.6-1-0.7-1.7-0.1
		c-2.1,1.4-2.3,3-0.6,3.9C115.1,257.1,115.1,257,116.6,256z M119.7,251.7c0.9-2.1-0.1-3.9-1.9-3.5c-1.2,0.3-2.1,2.5-1.3,3.7
		C117.1,253,119.2,252.8,119.7,251.7z M112,252.9c0.5-0.6,0.5-0.8,0.2-2.1c-0.3-1.1-0.6-1.5-1.4-1.6c-1.8-0.4-2.8,1.4-1.9,3.5
		C109.4,253.8,111.1,253.9,112,252.9z M117,257.5c0.8-0.5,1.1-1.9,0.5-2.8c-0.7-1.1-3.2-1.1-3.9,0c-0.4,0.7-0.4,1-0.1,1.9
		c0.4,1,0.6,1.1,1.7,1.1C116,257.8,116.8,257.7,117,257.5L117,257.5z M111.6,257.3c-5.9-2.2-5.6-11.4,0.5-13.1
		c4.2-1.2,8.4,2.1,8.4,6.6C120.5,255.7,116.1,258.9,111.6,257.3z"/>
	<path id="XMLID_26_" class="st5" d="M70,257.5c-2.6-9-2.8-17.3-0.5-24.5c2.5-7.9,1.1-7.9,16,0.5l3.1,1.7l-1.2,2.8
		c-0.9,2-1.1,4.2-0.8,8.4l0.4,5.6l-7.5,3.1c-4.1,1.7-7.9,3.3-8.3,3.4C70.8,258.7,70.2,258.2,70,257.5z"/>
	<path id="XMLID_27_" class="st6" d="M137.9,256l-3.4-0.3l-0.8-3.7c-0.9-4.2-2.5-7.7-4.6-9.9c-1.4-1.5-1.4-1.6,4.6-8.3
		c3.3-3.7,6.2-6.7,6.6-6.7c1.1,0,6.6,7.8,8.8,12.5c1.2,2.6,2.6,6.9,3,9.6c1.3,7.9,1.6,7.4-4.9,7.2
		C143.9,256.3,139.8,256.1,137.9,256z"/>
	<path id="XMLID_28_" class="st7" d="M86.9,230.2c-4.1-2.3-7.5-4.2-7.7-4.4c-0.7-0.6,2-4.4,5.9-8.4c4.3-4.3,12.2-9,16.8-10
		c1.4-0.3,2.7-0.6,2.9-0.6c0.2,0,1,4,1.9,8.9l1.6,9L105,226c-1.8,0.7-4.9,2.9-6.9,4.8c-2,2-3.6,3.6-3.7,3.5
		C94.3,234.3,90.9,232.5,86.9,230.2z"/>
	<path id="XMLID_29_" class="st8" d="M124.7,231.7c-2.1-1.1-5.1-1.9-7.7-2.1l-4.3-0.3l-1.6-8.7c-1.2-6.4-1.4-8.9-0.8-9.3
		c1.5-1,13.2,0.1,18,1.7c4.7,1.6,11.3,5.5,11.7,7c0.3,0.8-10.6,13.6-11.4,13.5C128.3,233.6,126.6,232.7,124.7,231.7z"/>
	<path id="XMLID_30_" d="M107.9,264.7c-4.9-0.3-9.3-3.3-11.5-7.7c-0.4-0.8-0.7-1.5-0.9-2.3c-1.2-4.1-0.6-8.5,1.7-12
		c0.6-0.9,1-1.5,1.8-2.3c0.7-0.8,1.4-1.3,2.2-1.8c3.2-2.2,7.3-2.8,11.1-1.9c2.4,0.6,4.6,1.9,6.4,3.7c1,1.1,1.9,2.3,2.6,3.6
		c0.7,1.5,1.2,2.8,1.4,4.5c0.1,0.9,0.2,2.5,0.1,3.5c-0.5,4.9-3.4,9.1-7.7,11.3c-1.7,0.8-3.4,1.3-5.3,1.4
		C109,264.7,108.7,264.7,107.9,264.7L107.9,264.7z"/>
	<path id="XMLID_31_" class="st4" d="M110.1,263.9c0.9-0.1,2-0.4,3-0.7l0.4-0.1l0.6-2.1c0.3-1.2,0.6-2.1,0.6-2.2c0,0-0.7-1-1.5-2.3
		l-1.5-2.2l-1,0c-0.5,0-1.6,0-2.3,0l-1.3,0l-1.9,2.3c-1,1.3-1.9,2.3-1.9,2.3c0,0,0.3,0.8,0.8,2.2l0.8,2.1l0.3,0.1
		c0.7,0.3,1.4,0.5,2.2,0.6C107.7,264,109.5,264,110.1,263.9L110.1,263.9z"/>
	<path id="XMLID_32_" class="st4" d="M119.6,258.5c1-1.2,1.7-2.6,2.2-4.3c0.3-1,0.4-2.2,0.4-3.2v-0.5l-1.9-1.3l-1.9-1.3l-2.4,0.8
		c-1.3,0.4-2.4,0.8-2.4,0.8c-0.1,0.1-1.7,4.2-1.7,4.2c0,0.1,3.3,4.5,3.3,4.6c0.1,0,3.6,0.3,3.9,0.3
		C119.3,258.7,119.4,258.7,119.6,258.5z"/>
	<path id="XMLID_33_" class="st4" d="M104.5,256.3l1.9-2.2l-0.9-2.2c-0.5-1.2-0.9-2.2-0.9-2.2c0,0-5.2-1.8-5.3-1.8
		c0,0-0.8,0.6-1.8,1.3c-2,1.5-1.8,1.2-1.8,2.3c-0.1,2.1,0.6,4.3,2.2,6.5l0.3,0.4l0.2,0c0.1,0,1.1,0,2.1,0.1c1,0,1.9,0.1,2,0.1
		C102.6,258.5,102.7,258.3,104.5,256.3L104.5,256.3z"/>
	<path id="XMLID_34_" class="st4" d="M106.7,247.5c0.9-0.8,1.7-1.6,1.8-1.6l0.1-0.1l0.1-2.6c0-1.4,0.1-2.8,0.1-3l0-0.4l-2.1-0.9
		l-2.1-0.9l-0.4,0.1c-2.7,0.9-5.2,2.9-6.3,5.1l-0.2,0.3l0.9,2l0.9,2l2.7,0.9c1.5,0.5,2.7,0.9,2.7,0.9
		C105,249,105.8,248.3,106.7,247.5L106.7,247.5z"/>
	<path id="XMLID_35_" class="st4" d="M115.8,248.2c1.3-0.4,2.4-0.8,2.4-0.8c0.1-0.1,2-3.3,2-3.4c0-0.1-0.5-1-0.8-1.5
		c-0.8-1.3-2-2.4-3.3-3.3c-0.5-0.3-1.7-0.9-2.1-1.1l-0.2-0.1l-2.2,0.8c-1.2,0.4-2.2,0.8-2.2,0.8c0,0-0.1,1.4-0.1,3l-0.1,3l0.1,0.1
		c0.2,0.2,4,3.2,4,3.2C113.4,249,114.5,248.6,115.8,248.2L115.8,248.2z"/>
</g>
</svg>
