<?xml version="1.0" encoding="UTF-8" standalone="no" ?>
<!DOCTYPE svg PUBLIC "-//W3C//DTD SVG 1.1//EN" "http://www.w3.org/Graphics/SVG/1.1/DTD/svg11.dtd">
<svg xmlns="http://www.w3.org/2000/svg" xmlns:xlink="http://www.w3.org/1999/xlink" version="1.1" width="640" height="480" viewBox="0 0 640 480" xml:space="preserve">
<desc>Created with Fabric.js 3.6.6</desc>
<defs>
</defs>
<g transform="matrix(1 0 0 1 314.49 422.1)" id="rect837"  >
<rect style="stroke: none; stroke-width: 0.926161; stroke-dasharray: none; stroke-linecap: butt; stroke-dashoffset: 0; stroke-linejoin: miter; stroke-miterlimit: 4; fill: rgb(0,50,160); fill-rule: nonzero; opacity: 1;"  x="-130.49611" y="-43.2980345" rx="0" ry="0" width="260.99222" height="86.596069" />
</g>
<g transform="matrix(0.93 0 0 0.93 382.57 422.26)" id="path839"  >
<path style="stroke: none; stroke-width: 1; stroke-dasharray: none; stroke-linecap: butt; stroke-dashoffset: 0; stroke-linejoin: miter; stroke-miterlimit: 4; fill: rgb(255,255,255); fill-rule: nonzero; opacity: 1;"  transform=" translate(-214.45, -401.95)" d="m 228.9 397.1 c -0.1 0.1 -0.1 0.2 -0.2 0.4 c -2.1 5.4 -4.3 10.8 -6.4 16.2 c -0.7 1.6 -1.3 3.2 -1.9 4.8 c -0.3 0.8 -0.8 1.3 -1.6 1.3 c -2.8 0 -5.6 0 -8.3 0 c -0.9 0 -1.4 -0.5 -1.8 -1.4 c -2.6 -6.1 -5.2 -12.2 -7.8 -18.3 c -0.4 -0.9 -0.7 -1.9 -1.2 -2.9 c 0 0.2 0 0.5 0 0.7 c 0 9.6 0 19.1 0 28.7 c 0 1.2 -0.2 1.5 -1.4 1.6 c -2.4 0.1 -4.7 0.1 -7.1 0.2 c -0.8 0 -1.7 0 -2.5 -0.1 c -1.1 -0.1 -1.3 -0.3 -1.3 -1.4 c 0 -16.7 0 -33.3 0 -50 c 0 -1 0.2 -1.3 1.3 -1.4 c 0.7 -0.1 1.4 -0.1 2.1 -0.1 c 2.6 0 5.2 0 7.8 0 c 0.9 0 1.7 0.2 2.6 0.4 c 0.4 0.1 0.9 0.6 1.1 1 c 2.7 6.4 5.5 12.9 8.2 19.4 c 1.6 3.8 3 7.7 4.5 11.5 c 0 0 0.1 -0.2 0.1 -0.3 c 2 -5.2 4.1 -10.5 6.2 -15.7 c 2 -4.9 4.1 -9.8 6.1 -14.7 c 0.4 -0.9 1 -1.4 1.9 -1.5 c 1.4 -0.1 2.7 -0.1 4.1 -0.1 c 1.8 0 3.5 0 5.3 0 c 0.7 0 1.3 0.2 2 0.3 c 0.6 0.1 0.8 0.5 0.8 1.1 c 0 1.8 0 3.6 0 5.3 c 0 14.9 0 29.8 0 44.7 c 0 1.1 -0.2 1.5 -1.3 1.5 c -2.3 0.1 -4.6 0.1 -7 0.2 c -0.9 0 -1.8 0 -2.7 -0.1 c -1 -0.1 -1.2 -0.4 -1.2 -1.4 c 0 -9.7 0 -19.3 0 -29 c 0 -0.2 0 -0.4 0 -0.7 c -0.4 -0.2 -0.4 -0.2 -0.4 -0.2 z" stroke-linecap="round" />
</g>
<g transform="matrix(0.93 0 0 0.93 311.49 421.98)" id="path841"  >
<path style="stroke: none; stroke-width: 1; stroke-dasharray: none; stroke-linecap: butt; stroke-dashoffset: 0; stroke-linejoin: miter; stroke-miterlimit: 4; fill: rgb(255,255,255); fill-rule: nonzero; opacity: 1;"  transform=" translate(-137.7, -401.65)" d="m 131.6 386.6 c -2.1 0 -4.1 0 -6.1 0 c -2 0 -3.9 0 -5.9 0 c -0.8 0 -1.1 -0.2 -1.2 -1 c -0.1 -0.5 -0.1 -1.1 -0.1 -1.6 c 0 -2.2 0 -4.4 0 -6.6 c 0 -0.4 0.1 -0.8 0.1 -1.3 c 0.1 -0.8 0.3 -1 1.1 -1 c 7.7 0 15.3 0 23 0 c 4.5 0 8.9 0 13.4 0 c 0.8 0 1.1 0.2 1.1 1 c 0.1 0.8 0.1 1.7 0.1 2.5 c 0 2.2 0 4.4 -0.1 6.6 c 0 1.1 -0.4 1.3 -1.4 1.3 c -3.7 0 -7.3 0 -11 0 c -0.2 0 -0.5 0 -0.7 0 c 0 0.3 0 0.5 0 0.7 c 0 13.1 0 26.2 0 39.2 c 0 1.2 -0.2 1.5 -1.4 1.6 c -2.3 0.1 -4.7 0.1 -7 0.2 c -0.9 0 -1.8 -0.1 -2.7 -0.2 c -0.8 -0.1 -1 -0.4 -1 -1.2 c 0 -13.2 0 -26.3 0 -39.5 c -0.2 -0.2 -0.2 -0.4 -0.2 -0.7 z" stroke-linecap="round" />
</g>
<g transform="matrix(0.93 0 0 0.93 342.65 422.06)" id="path843"  >
<path style="stroke: none; stroke-width: 1; stroke-dasharray: none; stroke-linecap: butt; stroke-dashoffset: 0; stroke-linejoin: miter; stroke-miterlimit: 4; fill: rgb(255,255,255); fill-rule: nonzero; opacity: 1;"  transform=" translate(-171.35, -401.73)" d="m 165.2 401.7 c 0 -8.3 0 -16.6 0 -25 c 0 -1.1 0.2 -1.3 1.3 -1.5 c 1 -0.1 2 -0.2 3 -0.1 c 2.1 0 4.2 0.1 6.3 0.1 c 0.3 0 0.5 0.1 0.8 0.2 c 0.6 0.2 0.9 0.5 0.9 1.2 c 0 3.2 0 6.5 0 9.7 c 0 13.4 0 26.9 0 40.3 c 0 1.2 -0.2 1.5 -1.3 1.6 c -2.4 0.1 -4.7 0.1 -7.1 0.2 c -0.9 0 -1.8 0 -2.7 -0.1 c -0.9 -0.1 -1.1 -0.4 -1.1 -1.3 c -0.1 -8.6 -0.1 -17 -0.1 -25.3 z" stroke-linecap="round" />
</g>
<g transform="matrix(0.93 0 0 0.93 251.01 402.72)" id="path845"  >
<path style="stroke: none; stroke-width: 1; stroke-dasharray: none; stroke-linecap: butt; stroke-dashoffset: 0; stroke-linejoin: miter; stroke-miterlimit: 4; fill: rgb(228,0,43); fill-rule: nonzero; opacity: 1;"  transform=" translate(-72.4, -380.85)" d="m 72.3 375.1 c 9.6 0 19.1 0 28.7 0 c 1.6 0 3.1 1.4 3.1 3 c 0 1.9 0 3.8 0 5.7 c 0 1.3 -1.2 2.6 -2.5 2.7 c -0.7 0.1 -1.5 0.1 -2.2 0.1 c -18.4 0 -36.8 0 -55.2 0 c -1.4 0 -2.6 -0.4 -3.2 -1.7 c -0.2 -0.4 -0.3 -0.9 -0.3 -1.3 c 0 -1.8 0 -3.7 0 -5.5 c 0 -1.6 1.3 -2.9 2.9 -2.9 c 9.5 -0.1 19.1 -0.1 28.7 -0.1 z" stroke-linecap="round" />
</g>
<g transform="matrix(0.93 0 0 0.93 268.47 421.98)" id="path847"  >
<path style="stroke: none; stroke-width: 1; stroke-dasharray: none; stroke-linecap: butt; stroke-dashoffset: 0; stroke-linejoin: miter; stroke-miterlimit: 4; fill: rgb(228,0,43); fill-rule: nonzero; opacity: 1;"  transform=" translate(-91.25, -401.65)" d="m 78.6 396 c 0.2 0 0.4 0 0.6 0 c 7.2 0 14.4 0 21.6 0 c 1.6 0 2.7 0.8 3.1 2.2 c 0.1 0.3 0.1 0.6 0.1 0.9 c 0 1.8 0 3.6 0 5.4 c 0 1.5 -1.3 2.8 -2.8 2.8 c -7.4 0 -14.9 0 -22.3 0 c -0.1 0 -0.2 0 -0.4 0 c 0.1 -3.7 0.1 -7.5 0.1 -11.3 z" stroke-linecap="round" />
</g>
<g transform="matrix(0.93 0 0 0.93 268.51 441.34)" id="path849"  >
<path style="stroke: none; stroke-width: 1; stroke-dasharray: none; stroke-linecap: butt; stroke-dashoffset: 0; stroke-linejoin: miter; stroke-miterlimit: 4; fill: rgb(228,0,43); fill-rule: nonzero; opacity: 1;"  transform=" translate(-91.3, -422.55)" d="m 78.6 428.2 c 0 -3.8 0 -7.5 0 -11.3 c 0.2 0 0.4 0 0.6 0 c 7.2 0 14.3 0 21.5 0 c 1.7 0 2.7 0.7 3.2 2.2 c 0.1 0.3 0.1 0.6 0.1 0.9 c 0 1.8 0 3.7 0 5.5 c 0 1.4 -1.4 2.7 -2.7 2.7 c -7.4 0 -14.9 0 -22.3 0 c -0.1 0 -0.2 0 -0.4 0 z" stroke-linecap="round" />
</g>
<g transform="matrix(0.93 0 0 0.93 233.27 441.29)" id="path851"  >
<path style="stroke: none; stroke-width: 1; stroke-dasharray: none; stroke-linecap: butt; stroke-dashoffset: 0; stroke-linejoin: miter; stroke-miterlimit: 4; fill: rgb(228,0,43); fill-rule: nonzero; opacity: 1;"  transform=" translate(-53.25, -422.5)" d="m 66 416.9 c 0 3.8 0 7.5 0 11.3 c -0.2 0 -0.5 0 -0.7 0 c -7.3 0 -14.5 0 -21.8 0 c -1.7 0 -3 -1.3 -3 -3 c 0 -1.8 0 -3.6 0 -5.5 c 0 -1.5 1.3 -2.9 2.8 -2.9 c 7.4 0 14.8 0 22.1 0 c 0.2 0.1 0.4 0.1 0.6 0.1 z" stroke-linecap="round" />
</g>
<g transform="matrix(0.93 0 0 0.93 233.18 421.94)" id="path853"  >
<path style="stroke: none; stroke-width: 1; stroke-dasharray: none; stroke-linecap: butt; stroke-dashoffset: 0; stroke-linejoin: miter; stroke-miterlimit: 4; fill: rgb(228,0,43); fill-rule: nonzero; opacity: 1;"  transform=" translate(-53.15, -401.6)" d="m 65.9 407.3 c -0.3 0 -0.5 0 -0.8 0 c -7.2 0 -14.3 0 -21.5 0 c -1.7 0 -3.3 -1.4 -3.2 -3.2 c 0.1 -1.8 0 -3.5 0 -5.3 c 0 -1.5 1.3 -2.9 2.8 -2.9 c 7.4 0 14.9 0 22.3 0 c 0.1 0 0.2 0 0.3 0 c 0.1 3.9 0.1 7.6 0.1 11.4 z" stroke-linecap="round" />
</g>
<g transform="matrix(0.93 0 0 0.93 235.66 308.43)" id="path859"  >
<path style="stroke: none; stroke-width: 1; stroke-dasharray: none; stroke-linecap: butt; stroke-dashoffset: 0; stroke-linejoin: miter; stroke-miterlimit: 4; fill: rgb(26,22,89); fill-rule: nonzero; opacity: 1;"  transform=" translate(-54.87, -314.2)" d="m 39 329.8 c -0.2 -0.2 -0.4 -0.7 -0.1 -1 l 4.6 -5.3 c 0.2 -0.3 0.6 -0.3 0.9 -0.1 c 2.7 2.2 6.4 4.2 10.8 4.2 c 4.3 0 6.7 -2 6.7 -4.9 c 0 -2.4 -1.5 -3.9 -6.4 -4.6 l -2.2 -0.3 c -8.4 -1.2 -13 -5.1 -13 -12.3 c 0 -7.6 5.7 -12.6 14.6 -12.6 c 5.4 0 10.5 1.6 14 4.3 c 0.4 0.2 0.4 0.5 0.1 0.9 l -3.7 5.5 c -0.2 0.3 -0.5 0.4 -0.8 0.2 c -3.1 -2.1 -6.2 -3.1 -9.6 -3.1 c -3.6 0 -5.5 1.9 -5.5 4.5 c 0 2.4 1.7 3.9 6.4 4.5 L 58 310 c 8.5 1.2 13 5 13 12.5 c 0 7.4 -5.5 13 -16.2 13 c -6.4 -0.1 -12.6 -2.6 -15.8 -5.7 z" stroke-linecap="round" />
</g>
<g transform="matrix(0.93 0 0 0.93 267.82 308.47)" id="path861"  >
<path style="stroke: none; stroke-width: 1; stroke-dasharray: none; stroke-linecap: butt; stroke-dashoffset: 0; stroke-linejoin: miter; stroke-miterlimit: 4; fill: rgb(26,22,89); fill-rule: nonzero; opacity: 1;"  transform=" translate(-89.6, -314.25)" d="m 75.8 294.2 c 0 -0.4 0.2 -0.6 0.6 -0.6 h 26.4 c 0.4 0 0.6 0.2 0.6 0.6 v 6.5 c 0 0.4 -0.2 0.6 -0.6 0.6 H 85 c -0.2 0 -0.4 0.1 -0.4 0.4 v 8.2 c 0 0.2 0.1 0.4 0.4 0.4 h 14.8 c 0.4 0 0.6 0.2 0.6 0.6 v 6.4 c 0 0.4 -0.2 0.6 -0.6 0.6 H 85 c -0.2 0 -0.4 0.1 -0.4 0.4 v 8.5 c 0 0.2 0.1 0.4 0.4 0.4 h 17.7 c 0.4 0 0.6 0.2 0.6 0.6 v 6.5 c 0 0.4 -0.2 0.6 -0.6 0.6 H 76.4 c -0.4 0 -0.6 -0.2 -0.6 -0.6 z" stroke-linecap="round" />
</g>
<g transform="matrix(0.93 0 0 0.93 300.28 308.33)" id="path863"  >
<path style="stroke: none; stroke-width: 1; stroke-dasharray: none; stroke-linecap: butt; stroke-dashoffset: 0; stroke-linejoin: miter; stroke-miterlimit: 4; fill: rgb(26,22,89); fill-rule: nonzero; opacity: 1;"  transform=" translate(-124.64, -314.1)" d="m 131.5 334.7 c -0.5 0 -0.7 -0.2 -0.9 -0.6 L 123.5 319 H 118 c -0.2 0 -0.4 0.1 -0.4 0.4 v 14.7 c 0 0.4 -0.2 0.6 -0.6 0.6 h -7.7 c -0.4 0 -0.6 -0.2 -0.6 -0.6 v -40 c 0 -0.4 0.2 -0.6 0.6 -0.6 h 16.4 c 8.4 0 14 5.3 14 12.8 c 0 5.3 -2.8 9.4 -7.3 11.4 l 8.1 16.2 c 0.2 0.4 0 0.7 -0.4 0.7 h -8.6 z m -0.6 -28.3 c 0 -3.1 -2.2 -5.1 -5.6 -5.1 H 118 c -0.2 0 -0.4 0.1 -0.4 0.4 v 9.5 c 0 0.2 0.1 0.4 0.4 0.4 h 7.3 c 3.4 -0.1 5.6 -2.1 5.6 -5.2 z" stroke-linecap="round" />
</g>
<g transform="matrix(0.93 0 0 0.93 323.53 308.43)" id="path865"  >
<path style="stroke: none; stroke-width: 1; stroke-dasharray: none; stroke-linecap: butt; stroke-dashoffset: 0; stroke-linejoin: miter; stroke-miterlimit: 4; fill: rgb(26,22,89); fill-rule: nonzero; opacity: 1;"  transform=" translate(-149.75, -314.2)" d="m 145.3 294.2 c 0 -0.4 0.2 -0.6 0.6 -0.6 h 7.7 c 0.4 0 0.6 0.2 0.6 0.6 v 40 c 0 0.4 -0.2 0.6 -0.6 0.6 H 146 c -0.4 0 -0.6 -0.2 -0.6 -0.6 v -40 z" stroke-linecap="round" />
</g>
<g transform="matrix(0.93 0 0 0.93 346.64 308.47)" id="path867"  >
<path style="stroke: none; stroke-width: 1; stroke-dasharray: none; stroke-linecap: butt; stroke-dashoffset: 0; stroke-linejoin: miter; stroke-miterlimit: 4; fill: rgb(26,22,89); fill-rule: nonzero; opacity: 1;"  transform=" translate(-174.7, -314.25)" d="m 160.9 294.2 c 0 -0.4 0.2 -0.6 0.6 -0.6 h 26.4 c 0.4 0 0.6 0.2 0.6 0.6 v 6.5 c 0 0.4 -0.2 0.6 -0.6 0.6 h -17.7 c -0.2 0 -0.4 0.1 -0.4 0.4 v 8.2 c 0 0.2 0.1 0.4 0.4 0.4 H 185 c 0.4 0 0.6 0.2 0.6 0.6 v 6.4 c 0 0.4 -0.2 0.6 -0.6 0.6 h -14.8 c -0.2 0 -0.4 0.1 -0.4 0.4 v 8.5 c 0 0.2 0.1 0.4 0.4 0.4 h 17.7 c 0.4 0 0.6 0.2 0.6 0.6 v 6.5 c 0 0.4 -0.2 0.6 -0.6 0.6 h -26.4 c -0.4 0 -0.6 -0.2 -0.6 -0.6 z" stroke-linecap="round" />
</g>
<g transform="matrix(0.93 0 0 0.93 390.96 308.43)" id="path869"  >
<path style="stroke: none; stroke-width: 1; stroke-dasharray: none; stroke-linecap: butt; stroke-dashoffset: 0; stroke-linejoin: miter; stroke-miterlimit: 4; fill: rgb(26,22,89); fill-rule: nonzero; opacity: 1;"  transform=" translate(-222.55, -314.2)" d="m 218.1 294.2 c 0.1 -0.4 0.4 -0.6 0.8 -0.6 h 7.6 c 0.4 0 0.7 0.2 0.8 0.6 l 13.9 40 c 0.1 0.4 0 0.6 -0.4 0.6 h -7.9 c -0.4 0 -0.7 -0.2 -0.8 -0.6 l -2.4 -7.2 h -14.4 l -2.3 7.2 c -0.1 0.4 -0.4 0.6 -0.8 0.6 h -7.9 c -0.4 0 -0.5 -0.2 -0.4 -0.6 z m 9.2 25.2 l -4.7 -14.4 h -0.2 l -4.7 14.4 z" stroke-linecap="round" />
</g>
<g transform="matrix(0.93 0 0 0.93 268 241.31)" id="polygon873"  >
<polygon style="stroke: none; stroke-width: 1; stroke-dasharray: none; stroke-linecap: butt; stroke-dashoffset: 0; stroke-linejoin: miter; stroke-miterlimit: 4; fill: rgb(26,22,89); fill-rule: nonzero; opacity: 1;"  points="-50.15,-31.8 11.25,-31.8 50.15,31.8 " />
</g>
<g transform="matrix(0.93 0 0 0.93 360.94 241.31)" id="polygon875"  >
<polygon style="stroke: none; stroke-width: 1; stroke-dasharray: none; stroke-linecap: butt; stroke-dashoffset: 0; stroke-linejoin: miter; stroke-miterlimit: 4; fill: rgb(26,22,89); fill-rule: nonzero; opacity: 1;"  points="50.2,-31.8 -11.3,-31.8 -50.2,31.8 " />
</g>
<g transform="matrix(0.93 0 0 0.93 314.45 164.3)" id="polygon877"  >
<polygon style="stroke: none; stroke-width: 1; stroke-dasharray: none; stroke-linecap: butt; stroke-dashoffset: 0; stroke-linejoin: miter; stroke-miterlimit: 4; fill: rgb(26,22,89); fill-rule: nonzero; opacity: 1;"  points="-38.9,51.35 0,51.35 38.9,51.35 0,-51.35 " />
</g>
<g transform="matrix(0.93 0 0 0.93 314.45 241.31)" id="polygon892"  >
<linearGradient id="SVGID_SVGID_1__5" gradientUnits="userSpaceOnUse" gradientTransform="matrix(1 0 0 1 -140.8 -241)"  x1="101.9403" y1="240.95979" x2="179.7025" y2="240.95979">
<stop offset="0%" style="stop-color:rgb(49,236,255);stop-opacity: 1"/>
<stop offset="4.937099%" style="stop-color:rgb(45,226,255);stop-opacity: 1"/>
<stop offset="29.64%" style="stop-color:rgb(27,178,255);stop-opacity: 1"/>
<stop offset="51.470000000000006%" style="stop-color:rgb(14,144,255);stop-opacity: 1"/>
<stop offset="69.39999999999999%" style="stop-color:rgb(6,123,255);stop-opacity: 1"/>
<stop offset="81.17999999999999%" style="stop-color:rgb(3,115,255);stop-opacity: 1"/>
</linearGradient>
<polygon style="stroke: none; stroke-width: 1; stroke-dasharray: none; stroke-linecap: butt; stroke-dashoffset: 0; stroke-linejoin: miter; stroke-miterlimit: 4; fill: url(#SVGID_SVGID_1__5); fill-rule: nonzero; opacity: 1;"  points="0,31.8 38.9,-31.8 -38.9,-31.8 " />
</g>
<g transform="matrix(0.93 0 0 0.93 314.49 133.51)" id="path913"  >
<linearGradient id="SVGID_SVGID_2__6" gradientUnits="userSpaceOnUse" gradientTransform="matrix(1 0 0 1 0 0)"  x1="198.45061" y1="50.923302" x2="129.11411" y2="241.42371">
<stop offset="0%" style="stop-color:rgb(49,236,255);stop-opacity: 1"/>
<stop offset="4.8827370000000005%" style="stop-color:rgb(45,226,255);stop-opacity: 1"/>
<stop offset="29.32%" style="stop-color:rgb(27,178,255);stop-opacity: 1"/>
<stop offset="50.91%" style="stop-color:rgb(14,144,255);stop-opacity: 1"/>
<stop offset="68.63%" style="stop-color:rgb(6,123,255);stop-opacity: 1"/>
<stop offset="80.28%" style="stop-color:rgb(3,115,255);stop-opacity: 1"/>
</linearGradient>
<path style="stroke: none; stroke-width: 1; stroke-dasharray: none; stroke-linecap: butt; stroke-dashoffset: 0; stroke-linejoin: miter; stroke-miterlimit: 4; fill: url(#SVGID_SVGID_2__6); fill-rule: nonzero; opacity: 1;"  transform=" translate(-140.85, -124.6)" d="m 140.8 106.5 l 16.8 44.3 H 136.4 L 122 189 h 50.1 l 7.6 20.2 h 61.5 L 168.5 40 c -18.5 0 -36.9 0 -55.4 0 L 40.5 209.2 H 102 Z" stroke-linecap="round" />
</g>
<g transform="matrix(0.95 0 0 0.93 252.83 353.08)" id="rect1009"  >
<rect style="stroke: none; stroke-width: 0.137619; stroke-dasharray: none; stroke-linecap: round; stroke-dashoffset: 0; stroke-linejoin: round; stroke-miterlimit: 4; fill: rgb(0,163,70); fill-rule: nonzero; opacity: 1;"  paint-order="stroke"  x="-32.5" y="-7.5" rx="0" ry="0" width="65" height="15" />
</g>
<g transform="matrix(0.95 0 0 0.93 314.49 353.08)" id="rect1009-5"  >
<rect style="stroke: none; stroke-width: 0.137619; stroke-dasharray: none; stroke-linecap: round; stroke-dashoffset: 0; stroke-linejoin: round; stroke-miterlimit: 4; fill: rgb(226,226,226); fill-rule: nonzero; opacity: 1;"  paint-order="stroke"  x="-32.5" y="-7.5" rx="0" ry="0" width="65" height="15" />
</g>
<g transform="matrix(0.95 0 0 0.93 376.16 353.08)" id="rect1009-55"  >
<rect style="stroke: none; stroke-width: 0.137619; stroke-dasharray: none; stroke-linecap: round; stroke-dashoffset: 0; stroke-linejoin: round; stroke-miterlimit: 4; fill: rgb(219,5,43); fill-rule: nonzero; opacity: 1;"  paint-order="stroke"  x="-32.5" y="-7.5" rx="0" ry="0" width="65" height="15" />
</g>
</svg>